solid flip-bot-ver2
facet normal 1.0 1.7333369499485123e-33 -2.7755575615628914e-17
  outer loop
    vertex 37.999999999999986 66.0 1.762479051592436e-16
    vertex 37.999999999999986 68.0 38.00000000000001
    vertex 37.999999999999986 65.99999999999999 38.00000000000001
  endloop
endfacet
facet normal 1.0 1.7333369499485123e-33 -2.7755575615628914e-17
  outer loop
    vertex 37.999999999999986 68.0 38.00000000000001
    vertex 37.999999999999986 66.0 1.762479051592436e-16
    vertex 37.999999999999986 68.0 3.524958103184872e-16
  endloop
endfacet
facet normal 0.0 0.0 1.0
  outer loop
    vertex 37.999999999999986 65.99999999999999 38.00000000000001
    vertex 5.551115123125782e-17 67.0 38.00000000000001
    vertex 5.551115123125782e-17 65.99999999999999 38.00000000000001
  endloop
endfacet
facet normal 0.0 0.0 1.0
  outer loop
    vertex 5.551115123125782e-17 67.0 38.00000000000001
    vertex -0.9999999999999999 68.0 38.00000000000001
    vertex -0.9999999999999999 67.0 38.00000000000001
  endloop
endfacet
facet normal 0.0 0.0 1.0
  outer loop
    vertex -0.9999999999999999 68.0 38.00000000000001
    vertex 5.551115123125782e-17 67.0 38.00000000000001
    vertex 37.999999999999986 68.0 38.00000000000001
  endloop
endfacet
facet normal 0.0 0.0 1.0
  outer loop
    vertex 37.999999999999986 68.0 38.00000000000001
    vertex 5.551115123125782e-17 67.0 38.00000000000001
    vertex 37.999999999999986 65.99999999999999 38.00000000000001
  endloop
endfacet
facet normal -1.0 1.1564823173178723e-18 -2.8912057932946805e-18
  outer loop
    vertex -1.1901518330124115e-32 65.99999999999999 2.0000000000000013
    vertex 0.0 58.99999999999997 1.400331570277134e-15
    vertex -1.1901518330124115e-32 58.99999999999997 2.0000000000000013
  endloop
endfacet
facet normal -1.0 1.1564823173178723e-18 -2.8912057932946805e-18
  outer loop
    vertex 0.0 58.99999999999997 1.400331570277134e-15
    vertex -1.1901518330124115e-32 65.99999999999999 2.0000000000000013
    vertex 1.61907524424502e-17 65.99999999999999 8.172447507086354e-16
  endloop
endfacet
facet normal 4.164905854060701e-17 -4.164905854060699e-17 -1.0
  outer loop
    vertex 1.61907524424502e-17 65.99999999999999 8.172447507086354e-16
    vertex 1.5292639262925605 62.84088022498847 1.4099832412739487e-15
    vertex 1.5081888352806176 62.31920098424153 1.4099832412739487e-15
  endloop
endfacet
facet normal 4.164905854060701e-17 -4.164905854060699e-17 -1.0
  outer loop
    vertex 1.5292639262925605 62.84088022498847 1.4099832412739487e-15
    vertex 1.61907524424502e-17 65.99999999999999 8.172447507086354e-16
    vertex 1.684641423932317 63.339329041733635 1.4099832412739487e-15
  endloop
endfacet
facet normal 4.164905854060701e-17 -4.164905854060699e-17 -1.0
  outer loop
    vertex 1.684641423932317 63.339329041733635 1.4099832412739487e-15
    vertex 1.61907524424502e-17 65.99999999999999 8.172447507086354e-16
    vertex 1.963732608509194 63.780578971341484 1.4099832412739487e-15
  endloop
endfacet
facet normal 4.164905854060701e-17 -4.164905854060699e-17 -1.0
  outer loop
    vertex 1.963732608509194 63.780578971341484 1.4099832412739487e-15
    vertex 1.61907524424502e-17 65.99999999999999 8.172447507086354e-16
    vertex 2.3475178770142655 64.13455956030921 1.4099832412739487e-15
  endloop
endfacet
facet normal 4.164905854060701e-17 -4.164905854060699e-17 -1.0
  outer loop
    vertex 2.3475178770142655 64.13455956030921 1.4099832412739487e-15
    vertex 1.61907524424502e-17 65.99999999999999 8.172447507086354e-16
    vertex 2.809842897634056 64.37714761647928 1.4099832412739487e-15
  endloop
endfacet
facet normal 4.164905854060701e-17 -4.164905854060699e-17 -1.0
  outer loop
    vertex 2.809842897634056 64.37714761647928 1.4099832412739487e-15
    vertex 1.61907524424502e-17 65.99999999999999 8.172447507086354e-16
    vertex 7.000000000000003 65.99999999999999 1.400331570277134e-15
  endloop
endfacet
facet normal 4.164905854060701e-17 -4.164905854060699e-17 -1.0
  outer loop
    vertex 2.809842897634056 64.37714761647928 1.4099832412739487e-15
    vertex 7.000000000000003 65.99999999999999 1.400331570277134e-15
    vertex 3.319200984241547 64.49181116471938 1.4099832412739487e-15
  endloop
endfacet
facet normal 4.164905854060701e-17 -4.164905854060699e-17 -1.0
  outer loop
    vertex 3.319200984241547 64.49181116471938 1.4099832412739487e-15
    vertex 7.000000000000003 65.99999999999999 1.400331570277134e-15
    vertex 3.840880224988477 64.47073607370743 1.4099832412739487e-15
  endloop
endfacet
facet normal 4.164905854060701e-17 -4.164905854060699e-17 -1.0
  outer loop
    vertex 3.840880224988477 64.47073607370743 1.4099832412739487e-15
    vertex 7.000000000000003 65.99999999999999 1.400331570277134e-15
    vertex 4.339329041733649 64.31535857606767 1.4099832412739487e-15
  endloop
endfacet
facet normal 4.164905854060701e-17 -4.164905854060699e-17 -1.0
  outer loop
    vertex 4.339329041733649 64.31535857606767 1.4099832412739487e-15
    vertex 7.000000000000003 65.99999999999999 1.400331570277134e-15
    vertex 4.780578971341496 64.0362673914908 1.4099832412739487e-15
  endloop
endfacet
facet normal 4.164905854060701e-17 -4.164905854060699e-17 -1.0
  outer loop
    vertex 4.780578971341496 64.0362673914908 1.4099832412739487e-15
    vertex 7.000000000000003 65.99999999999999 1.400331570277134e-15
    vertex 5.134559560309232 63.652482122985724 1.4099832412739487e-15
  endloop
endfacet
facet normal 4.164905854060701e-17 -4.164905854060699e-17 -1.0
  outer loop
    vertex 5.134559560309232 63.652482122985724 1.4099832412739487e-15
    vertex 7.000000000000003 65.99999999999999 1.400331570277134e-15
    vertex 5.377147616479284 63.19015710236593 1.4099832412739487e-15
  endloop
endfacet
facet normal 4.164905854060701e-17 -4.164905854060699e-17 -1.0
  outer loop
    vertex 5.377147616479284 63.19015710236593 1.4099832412739487e-15
    vertex 7.000000000000003 65.99999999999999 1.400331570277134e-15
    vertex 5.491811164719385 62.68079901575844 1.4099832412739487e-15
  endloop
endfacet
facet normal 4.164905854060701e-17 -4.164905854060699e-17 -1.0
  outer loop
    vertex 0.0 58.99999999999997 1.400331570277134e-15
    vertex 2.6606709582663535 60.684641423932305 1.4099832412739487e-15
    vertex 7.000000000000003 58.99999999999997 1.400331570277134e-15
  endloop
endfacet
facet normal 4.164905854060701e-17 -4.164905854060699e-17 -1.0
  outer loop
    vertex 2.6606709582663535 60.684641423932305 1.4099832412739487e-15
    vertex 0.0 58.99999999999997 1.400331570277134e-15
    vertex 2.2194210286585054 60.96373260850918 1.4099832412739487e-15
  endloop
endfacet
facet normal 4.164905854060701e-17 -4.164905854060699e-17 -1.0
  outer loop
    vertex 2.2194210286585054 60.96373260850918 1.4099832412739487e-15
    vertex 0.0 58.99999999999997 1.400331570277134e-15
    vertex 1.8654404396907707 61.34751787701425 1.4099832412739487e-15
  endloop
endfacet
facet normal 4.164905854060701e-17 -4.164905854060699e-17 -1.0
  outer loop
    vertex 1.8654404396907707 61.34751787701425 1.4099832412739487e-15
    vertex 0.0 58.99999999999997 1.400331570277134e-15
    vertex 1.6228523835207176 61.80984289763404 1.4099832412739487e-15
  endloop
endfacet
facet normal 4.164905854060701e-17 -4.164905854060699e-17 -1.0
  outer loop
    vertex 1.6228523835207176 61.80984289763404 1.4099832412739487e-15
    vertex 0.0 58.99999999999997 1.400331570277134e-15
    vertex 1.61907524424502e-17 65.99999999999999 8.172447507086354e-16
  endloop
endfacet
facet normal 4.164905854060701e-17 -4.164905854060699e-17 -1.0
  outer loop
    vertex 1.6228523835207176 61.80984289763404 1.4099832412739487e-15
    vertex 1.61907524424502e-17 65.99999999999999 8.172447507086354e-16
    vertex 1.5081888352806176 62.31920098424153 1.4099832412739487e-15
  endloop
endfacet
facet normal 4.164905854060701e-17 -4.164905854060699e-17 -1.0
  outer loop
    vertex 7.000000000000003 58.99999999999997 1.400331570277134e-15
    vertex 2.6606709582663535 60.684641423932305 1.4099832412739487e-15
    vertex 3.1591197750115247 60.52926392629254 1.4099832412739487e-15
  endloop
endfacet
facet normal 4.164905854060701e-17 -4.164905854060699e-17 -1.0
  outer loop
    vertex 7.000000000000003 58.99999999999997 1.400331570277134e-15
    vertex 3.1591197750115247 60.52926392629254 1.4099832412739487e-15
    vertex 3.6807990157584545 60.5081888352806 1.4099832412739487e-15
  endloop
endfacet
facet normal 4.164905854060701e-17 -4.164905854060699e-17 -1.0
  outer loop
    vertex 7.000000000000003 58.99999999999997 1.400331570277134e-15
    vertex 3.6807990157584545 60.5081888352806 1.4099832412739487e-15
    vertex 4.190157102365946 60.6228523835207 1.4099832412739487e-15
  endloop
endfacet
facet normal 4.164905854060701e-17 -4.164905854060699e-17 -1.0
  outer loop
    vertex 7.000000000000003 58.99999999999997 1.400331570277134e-15
    vertex 4.190157102365946 60.6228523835207 1.4099832412739487e-15
    vertex 4.652482122985737 60.86544043969076 1.4099832412739487e-15
  endloop
endfacet
facet normal 4.164905854060701e-17 -4.164905854060699e-17 -1.0
  outer loop
    vertex 7.000000000000003 58.99999999999997 1.400331570277134e-15
    vertex 4.652482122985737 60.86544043969076 1.4099832412739487e-15
    vertex 5.036267391490808 61.21942102865849 1.4099832412739487e-15
  endloop
endfacet
facet normal 4.164905854060701e-17 -4.164905854060699e-17 -1.0
  outer loop
    vertex 7.000000000000003 58.99999999999997 1.400331570277134e-15
    vertex 5.036267391490808 61.21942102865849 1.4099832412739487e-15
    vertex 5.315358576067686 61.66067095826634 1.4099832412739487e-15
  endloop
endfacet
facet normal 4.164905854060701e-17 -4.164905854060699e-17 -1.0
  outer loop
    vertex 7.000000000000003 58.99999999999997 1.400331570277134e-15
    vertex 5.315358576067686 61.66067095826634 1.4099832412739487e-15
    vertex 5.470736073707442 62.159119775011504 1.4099832412739487e-15
  endloop
endfacet
facet normal 4.164905854060701e-17 -4.164905854060699e-17 -1.0
  outer loop
    vertex 7.000000000000003 58.99999999999997 1.400331570277134e-15
    vertex 5.470736073707442 62.159119775011504 1.4099832412739487e-15
    vertex 5.491811164719385 62.68079901575844 1.4099832412739487e-15
  endloop
endfacet
facet normal 4.164905854060701e-17 -4.164905854060699e-17 -1.0
  outer loop
    vertex 7.000000000000003 58.99999999999997 1.400331570277134e-15
    vertex 5.491811164719385 62.68079901575844 1.4099832412739487e-15
    vertex 7.000000000000003 65.99999999999999 1.400331570277134e-15
  endloop
endfacet
facet normal 0.0 -1.0 0.0
  outer loop
    vertex 7.000000000000003 58.99999999999997 2.0000000000000013
    vertex 0.0 58.99999999999997 1.400331570277134e-15
    vertex 7.000000000000003 58.99999999999997 1.400331570277134e-15
  endloop
endfacet
facet normal 0.0 -1.0 0.0
  outer loop
    vertex 0.0 58.99999999999997 1.400331570277134e-15
    vertex 7.000000000000003 58.99999999999997 2.0000000000000013
    vertex -1.1901518330124115e-32 58.99999999999997 2.0000000000000013
  endloop
endfacet
facet normal 1.0 0.0 0.0
  outer loop
    vertex 7.000000000000003 65.99999999999999 1.400331570277134e-15
    vertex 7.000000000000003 58.99999999999997 2.0000000000000013
    vertex 7.000000000000003 58.99999999999997 1.400331570277134e-15
  endloop
endfacet
facet normal 1.0 0.0 0.0
  outer loop
    vertex 7.000000000000003 58.99999999999997 2.0000000000000013
    vertex 7.000000000000003 65.99999999999999 1.400331570277134e-15
    vertex 7.000000000000003 65.99999999999999 2.0000000000000013
  endloop
endfacet
facet normal 1.487689791265514e-32 1.63882642474093e-33 1.0
  outer loop
    vertex -1.1901518330124115e-32 58.99999999999997 2.0000000000000013
    vertex 1.6228523835207176 61.80984289763404 2.0000000000000013
    vertex -1.1901518330124115e-32 65.99999999999999 2.0000000000000013
  endloop
endfacet
facet normal 1.487689791265514e-32 1.63882642474093e-33 1.0
  outer loop
    vertex 1.6228523835207176 61.80984289763404 2.0000000000000013
    vertex -1.1901518330124115e-32 58.99999999999997 2.0000000000000013
    vertex 1.8654404396907707 61.34751787701425 2.0000000000000013
  endloop
endfacet
facet normal 1.487689791265514e-32 1.63882642474093e-33 1.0
  outer loop
    vertex 1.8654404396907707 61.34751787701425 2.0000000000000013
    vertex -1.1901518330124115e-32 58.99999999999997 2.0000000000000013
    vertex 2.2194210286585054 60.96373260850918 2.0000000000000013
  endloop
endfacet
facet normal 1.487689791265514e-32 1.63882642474093e-33 1.0
  outer loop
    vertex 2.2194210286585054 60.96373260850918 2.0000000000000013
    vertex -1.1901518330124115e-32 58.99999999999997 2.0000000000000013
    vertex 2.6606709582663535 60.684641423932305 2.0000000000000013
  endloop
endfacet
facet normal 1.487689791265514e-32 1.63882642474093e-33 1.0
  outer loop
    vertex 2.6606709582663535 60.684641423932305 2.0000000000000013
    vertex -1.1901518330124115e-32 58.99999999999997 2.0000000000000013
    vertex 7.000000000000003 58.99999999999997 2.0000000000000013
  endloop
endfacet
facet normal 1.487689791265514e-32 1.63882642474093e-33 1.0
  outer loop
    vertex -1.1901518330124115e-32 65.99999999999999 2.0000000000000013
    vertex 1.6228523835207176 61.80984289763404 2.0000000000000013
    vertex 1.5081888352806176 62.31920098424153 2.0000000000000013
  endloop
endfacet
facet normal 1.487689791265514e-32 1.63882642474093e-33 1.0
  outer loop
    vertex 2.6606709582663535 60.684641423932305 2.0000000000000013
    vertex 7.000000000000003 58.99999999999997 2.0000000000000013
    vertex 3.1591197750115247 60.52926392629254 2.0000000000000013
  endloop
endfacet
facet normal 1.487689791265514e-32 1.63882642474093e-33 1.0
  outer loop
    vertex 3.1591197750115247 60.52926392629254 2.0000000000000013
    vertex 7.000000000000003 58.99999999999997 2.0000000000000013
    vertex 3.6807990157584545 60.5081888352806 2.0000000000000013
  endloop
endfacet
facet normal 1.487689791265514e-32 1.63882642474093e-33 1.0
  outer loop
    vertex 3.6807990157584545 60.5081888352806 2.0000000000000013
    vertex 7.000000000000003 58.99999999999997 2.0000000000000013
    vertex 4.190157102365946 60.6228523835207 2.0000000000000013
  endloop
endfacet
facet normal 1.487689791265514e-32 1.63882642474093e-33 1.0
  outer loop
    vertex 4.190157102365946 60.6228523835207 2.0000000000000013
    vertex 7.000000000000003 58.99999999999997 2.0000000000000013
    vertex 4.652482122985737 60.86544043969076 2.0000000000000013
  endloop
endfacet
facet normal 1.487689791265514e-32 1.63882642474093e-33 1.0
  outer loop
    vertex 4.652482122985737 60.86544043969076 2.0000000000000013
    vertex 7.000000000000003 58.99999999999997 2.0000000000000013
    vertex 5.036267391490808 61.21942102865849 2.0000000000000013
  endloop
endfacet
facet normal 1.487689791265514e-32 1.63882642474093e-33 1.0
  outer loop
    vertex 5.036267391490808 61.21942102865849 2.0000000000000013
    vertex 7.000000000000003 58.99999999999997 2.0000000000000013
    vertex 5.315358576067686 61.66067095826634 2.0000000000000013
  endloop
endfacet
facet normal 1.487689791265514e-32 1.63882642474093e-33 1.0
  outer loop
    vertex 5.315358576067686 61.66067095826634 2.0000000000000013
    vertex 7.000000000000003 58.99999999999997 2.0000000000000013
    vertex 5.470736073707442 62.159119775011504 2.0000000000000013
  endloop
endfacet
facet normal 1.487689791265514e-32 1.63882642474093e-33 1.0
  outer loop
    vertex 5.470736073707442 62.159119775011504 2.0000000000000013
    vertex 7.000000000000003 58.99999999999997 2.0000000000000013
    vertex 5.491811164719385 62.68079901575844 2.0000000000000013
  endloop
endfacet
facet normal 1.487689791265514e-32 1.63882642474093e-33 1.0
  outer loop
    vertex -1.1901518330124115e-32 65.99999999999999 2.0000000000000013
    vertex 2.809842897634056 64.37714761647928 2.0000000000000013
    vertex 7.000000000000003 65.99999999999999 2.0000000000000013
  endloop
endfacet
facet normal 1.487689791265514e-32 1.63882642474093e-33 1.0
  outer loop
    vertex 2.809842897634056 64.37714761647928 2.0000000000000013
    vertex -1.1901518330124115e-32 65.99999999999999 2.0000000000000013
    vertex 2.3475178770142655 64.13455956030921 2.0000000000000013
  endloop
endfacet
facet normal 1.487689791265514e-32 1.63882642474093e-33 1.0
  outer loop
    vertex 2.3475178770142655 64.13455956030921 2.0000000000000013
    vertex -1.1901518330124115e-32 65.99999999999999 2.0000000000000013
    vertex 1.963732608509194 63.780578971341484 2.0000000000000013
  endloop
endfacet
facet normal 1.487689791265514e-32 1.63882642474093e-33 1.0
  outer loop
    vertex 1.963732608509194 63.780578971341484 2.0000000000000013
    vertex -1.1901518330124115e-32 65.99999999999999 2.0000000000000013
    vertex 1.684641423932317 63.339329041733635 2.0000000000000013
  endloop
endfacet
facet normal 1.487689791265514e-32 1.63882642474093e-33 1.0
  outer loop
    vertex 1.684641423932317 63.339329041733635 2.0000000000000013
    vertex -1.1901518330124115e-32 65.99999999999999 2.0000000000000013
    vertex 1.5292639262925605 62.84088022498847 2.0000000000000013
  endloop
endfacet
facet normal 1.487689791265514e-32 1.63882642474093e-33 1.0
  outer loop
    vertex 1.5292639262925605 62.84088022498847 2.0000000000000013
    vertex -1.1901518330124115e-32 65.99999999999999 2.0000000000000013
    vertex 1.5081888352806176 62.31920098424153 2.0000000000000013
  endloop
endfacet
facet normal 1.487689791265514e-32 1.63882642474093e-33 1.0
  outer loop
    vertex 7.000000000000003 65.99999999999999 2.0000000000000013
    vertex 2.809842897634056 64.37714761647928 2.0000000000000013
    vertex 3.319200984241547 64.49181116471938 2.0000000000000013
  endloop
endfacet
facet normal 1.487689791265514e-32 1.63882642474093e-33 1.0
  outer loop
    vertex 7.000000000000003 65.99999999999999 2.0000000000000013
    vertex 3.319200984241547 64.49181116471938 2.0000000000000013
    vertex 3.840880224988477 64.47073607370743 2.0000000000000013
  endloop
endfacet
facet normal 1.487689791265514e-32 1.63882642474093e-33 1.0
  outer loop
    vertex 7.000000000000003 65.99999999999999 2.0000000000000013
    vertex 3.840880224988477 64.47073607370743 2.0000000000000013
    vertex 4.339329041733649 64.31535857606767 2.0000000000000013
  endloop
endfacet
facet normal 1.487689791265514e-32 1.63882642474093e-33 1.0
  outer loop
    vertex 7.000000000000003 65.99999999999999 2.0000000000000013
    vertex 4.339329041733649 64.31535857606767 2.0000000000000013
    vertex 4.780578971341496 64.0362673914908 2.0000000000000013
  endloop
endfacet
facet normal 1.487689791265514e-32 1.63882642474093e-33 1.0
  outer loop
    vertex 7.000000000000003 65.99999999999999 2.0000000000000013
    vertex 4.780578971341496 64.0362673914908 2.0000000000000013
    vertex 5.134559560309232 63.652482122985724 2.0000000000000013
  endloop
endfacet
facet normal 1.487689791265514e-32 1.63882642474093e-33 1.0
  outer loop
    vertex 7.000000000000003 65.99999999999999 2.0000000000000013
    vertex 5.134559560309232 63.652482122985724 2.0000000000000013
    vertex 5.377147616479284 63.19015710236593 2.0000000000000013
  endloop
endfacet
facet normal 1.487689791265514e-32 1.63882642474093e-33 1.0
  outer loop
    vertex 7.000000000000003 65.99999999999999 2.0000000000000013
    vertex 5.377147616479284 63.19015710236593 2.0000000000000013
    vertex 5.491811164719385 62.68079901575844 2.0000000000000013
  endloop
endfacet
facet normal 1.487689791265514e-32 1.63882642474093e-33 1.0
  outer loop
    vertex 7.000000000000003 65.99999999999999 2.0000000000000013
    vertex 5.491811164719385 62.68079901575844 2.0000000000000013
    vertex 7.000000000000003 58.99999999999997 2.0000000000000013
  endloop
endfacet
facet normal -1.0 -1.3877787807814484e-17 1.09561482693272e-18
  outer loop
    vertex -0.9999999999999999 68.0 38.00000000000001
    vertex -0.9999999999999999 67.0 8.697460045403477e-16
    vertex -0.9999999999999999 67.0 38.00000000000001
  endloop
endfacet
facet normal -1.0 -1.3877787807814484e-17 1.09561482693272e-18
  outer loop
    vertex -0.9999999999999999 67.0 8.697460045403477e-16
    vertex -0.9999999999999999 68.0 38.00000000000001
    vertex -0.9999999999999999 68.0 1.4110788561008815e-15
  endloop
endfacet
facet normal 1.3877787807814484e-17 -1.0 -1.0136473391511787e-35
  outer loop
    vertex 5.551115123125782e-17 67.0 38.00000000000001
    vertex -0.9999999999999999 67.0 8.697460045403477e-16
    vertex 2.775557561562891e-17 67.0 8.686503897134149e-16
  endloop
endfacet
facet normal 1.3877787807814484e-17 -1.0 -1.0136473391511787e-35
  outer loop
    vertex -0.9999999999999999 67.0 8.697460045403477e-16
    vertex 5.551115123125782e-17 67.0 38.00000000000001
    vertex -0.9999999999999999 67.0 38.00000000000001
  endloop
endfacet
facet normal 0.0 1.0 0.0
  outer loop
    vertex -0.9999999999999999 68.0 1.4110788561008815e-15
    vertex 17.651923996761738 68.0 2.502001823492014
    vertex 18.72896090454834 68.0 2.235691807584085
  endloop
endfacet
facet normal 0.0 1.0 0.0
  outer loop
    vertex 17.651923996761738 68.0 2.502001823492014
    vertex -0.9999999999999999 68.0 1.4110788561008815e-15
    vertex 16.68051233568267 68.0 3.037995209670436
  endloop
endfacet
facet normal 0.0 1.0 0.0
  outer loop
    vertex 16.68051233568267 68.0 3.037995209670436
    vertex -0.9999999999999999 68.0 1.4110788561008815e-15
    vertex 15.88092602068 68.0 3.8071449026222415
  endloop
endfacet
facet normal 0.0 1.0 0.0
  outer loop
    vertex 15.88092602068 68.0 3.8071449026222415
    vertex -0.9999999999999999 68.0 1.4110788561008815e-15
    vertex 15.307655537742296 68.0 4.757034621852733
  endloop
endfacet
facet normal 0.0 1.0 0.0
  outer loop
    vertex 15.307655537742296 68.0 4.757034621852733
    vertex -0.9999999999999999 68.0 1.4110788561008815e-15
    vertex -0.9999999999999999 68.0 38.00000000000001
  endloop
endfacet
facet normal 0.0 1.0 0.0
  outer loop
    vertex 15.307655537742296 68.0 4.757034621852733
    vertex -0.9999999999999999 68.0 38.00000000000001
    vertex 14.999768322907501 68.0 5.8229309527633335
  endloop
endfacet
facet normal 0.0 1.0 0.0
  outer loop
    vertex 14.999768322907501 68.0 5.8229309527633335
    vertex -0.9999999999999999 68.0 38.00000000000001
    vertex 14.978246381058923 68.0 6.932194821879456
  endloop
endfacet
facet normal 0.0 1.0 0.0
  outer loop
    vertex 14.978246381058923 68.0 6.932194821879456
    vertex -0.9999999999999999 68.0 38.00000000000001
    vertex 15.244556396966852 68.0 8.009231729666059
  endloop
endfacet
facet normal 0.0 1.0 0.0
  outer loop
    vertex 15.244556396966852 68.0 8.009231729666059
    vertex -0.9999999999999999 68.0 38.00000000000001
    vertex 15.780549783145275 68.0 8.980643390745131
  endloop
endfacet
facet normal 0.0 1.0 0.0
  outer loop
    vertex 15.780549783145275 68.0 8.980643390745131
    vertex -0.9999999999999999 68.0 38.00000000000001
    vertex 16.15336482099273 68.0 9.368211383064025
  endloop
endfacet
facet normal 0.0 1.0 0.0
  outer loop
    vertex 16.15336482099273 68.0 9.368211383064025
    vertex -0.9999999999999999 68.0 38.00000000000001
    vertex 16.549699476097082 68.0 9.7802297057478
  endloop
endfacet
facet normal 0.0 1.0 0.0
  outer loop
    vertex 16.549699476097082 68.0 9.7802297057478
    vertex -0.9999999999999999 68.0 38.00000000000001
    vertex 17.49958919532757 68.0 10.353500188685501
  endloop
endfacet
facet normal 0.0 1.0 0.0
  outer loop
    vertex 17.49958919532757 68.0 10.353500188685501
    vertex -0.9999999999999999 68.0 38.00000000000001
    vertex 18.565485526238174 68.0 10.6613874035203
  endloop
endfacet
facet normal 0.0 1.0 0.0
  outer loop
    vertex 18.565485526238174 68.0 10.6613874035203
    vertex -0.9999999999999999 68.0 38.00000000000001
    vertex 19.674749395354294 68.0 10.682909345368875
  endloop
endfacet
facet normal 0.0 1.0 0.0
  outer loop
    vertex 37.999999999999986 68.0 3.524958103184872e-16
    vertex 23.159153902935785 68.0 4.909369423286901
    vertex 37.999999999999986 68.0 38.00000000000001
  endloop
endfacet
facet normal 0.0 1.0 0.0
  outer loop
    vertex 23.159153902935785 68.0 4.909369423286901
    vertex 37.999999999999986 68.0 3.524958103184872e-16
    vertex 22.623160516757363 68.0 3.9379577622078314
  endloop
endfacet
facet normal 0.0 1.0 0.0
  outer loop
    vertex 22.623160516757363 68.0 3.9379577622078314
    vertex 37.999999999999986 68.0 3.524958103184872e-16
    vertex 21.854010823805556 68.0 3.1383714472051607
  endloop
endfacet
facet normal 0.0 1.0 0.0
  outer loop
    vertex 21.854010823805556 68.0 3.1383714472051607
    vertex 37.999999999999986 68.0 3.524958103184872e-16
    vertex 20.904121104575065 68.0 2.565100964267459
  endloop
endfacet
facet normal 0.0 1.0 0.0
  outer loop
    vertex 20.904121104575065 68.0 2.565100964267459
    vertex 37.999999999999986 68.0 3.524958103184872e-16
    vertex 19.838224773664464 68.0 2.2572137494326636
  endloop
endfacet
facet normal 0.0 1.0 0.0
  outer loop
    vertex 19.838224773664464 68.0 2.2572137494326636
    vertex 37.999999999999986 68.0 3.524958103184872e-16
    vertex -0.9999999999999999 68.0 1.4110788561008815e-15
  endloop
endfacet
facet normal 0.0 1.0 0.0
  outer loop
    vertex 19.838224773664464 68.0 2.2572137494326636
    vertex -0.9999999999999999 68.0 1.4110788561008815e-15
    vertex 18.72896090454834 68.0 2.235691807584085
  endloop
endfacet
facet normal 0.0 1.0 0.0
  outer loop
    vertex 37.999999999999986 68.0 38.00000000000001
    vertex 23.159153902935785 68.0 4.909369423286901
    vertex 23.425463918843715 68.0 5.9864063310735025
  endloop
endfacet
facet normal 0.0 1.0 0.0
  outer loop
    vertex 37.999999999999986 68.0 38.00000000000001
    vertex 23.425463918843715 68.0 5.9864063310735025
    vertex 23.40394197699514 68.0 7.095670200189628
  endloop
endfacet
facet normal 0.0 1.0 0.0
  outer loop
    vertex 37.999999999999986 68.0 38.00000000000001
    vertex 23.40394197699514 68.0 7.095670200189628
    vertex 23.096054762160342 68.0 8.161566531100226
  endloop
endfacet
facet normal 0.0 1.0 0.0
  outer loop
    vertex 37.999999999999986 68.0 38.00000000000001
    vertex 23.096054762160342 68.0 8.161566531100226
    vertex 22.8291001397938 68.0 8.60390127331055
  endloop
endfacet
facet normal 0.0 1.0 0.0
  outer loop
    vertex 37.999999999999986 68.0 38.00000000000001
    vertex 22.8291001397938 68.0 8.60390127331055
    vertex 22.522784279222638 68.0 9.111456250330718
  endloop
endfacet
facet normal 0.0 1.0 0.0
  outer loop
    vertex 37.999999999999986 68.0 38.00000000000001
    vertex 22.522784279222638 68.0 9.111456250330718
    vertex 21.72319796421997 68.0 9.880605943282523
  endloop
endfacet
facet normal 0.0 1.0 0.0
  outer loop
    vertex 37.999999999999986 68.0 38.00000000000001
    vertex 21.72319796421997 68.0 9.880605943282523
    vertex 20.751786303140896 68.0 10.416599329460947
  endloop
endfacet
facet normal 0.0 1.0 0.0
  outer loop
    vertex 37.999999999999986 68.0 38.00000000000001
    vertex 20.751786303140896 68.0 10.416599329460947
    vertex 19.674749395354294 68.0 10.682909345368875
  endloop
endfacet
facet normal 0.0 1.0 0.0
  outer loop
    vertex 37.999999999999986 68.0 38.00000000000001
    vertex 19.674749395354294 68.0 10.682909345368875
    vertex -0.9999999999999999 68.0 38.00000000000001
  endloop
endfacet
facet normal 0.7206904348900255 0.0 -0.6932570209222738
  outer loop
    vertex 15.780549783145275 68.0 8.980643390745131
    vertex 16.15336482099273 66.0 9.368211383064025
    vertex 15.780549783145275 66.0 8.980643390745131
  endloop
endfacet
facet normal 0.7206904348900255 0.0 -0.6932570209222738
  outer loop
    vertex 16.15336482099273 66.0 9.368211383064025
    vertex 15.780549783145275 68.0 8.980643390745131
    vertex 16.15336482099273 68.0 9.368211383064025
  endloop
endfacet
facet normal 0.7206904348900275 0.0 -0.6932570209222717
  outer loop
    vertex 16.15336482099273 68.0 9.368211383064025
    vertex 16.549699476097082 66.0 9.7802297057478
    vertex 16.15336482099273 66.0 9.368211383064025
  endloop
endfacet
facet normal 0.7206904348900275 0.0 -0.6932570209222717
  outer loop
    vertex 16.549699476097082 66.0 9.7802297057478
    vertex 16.15336482099273 68.0 9.368211383064025
    vertex 16.549699476097082 68.0 9.7802297057478
  endloop
endfacet
facet normal 0.5167053836540576 0.0 -0.8561632709378003
  outer loop
    vertex 17.49958919532757 68.0 10.353500188685501
    vertex 16.549699476097082 66.0 9.7802297057478
    vertex 16.549699476097082 68.0 9.7802297057478
  endloop
endfacet
facet normal 0.5167053836540576 0.0 -0.8561632709378003
  outer loop
    vertex 16.549699476097082 66.0 9.7802297057478
    vertex 17.49958919532757 68.0 10.353500188685501
    vertex 17.49958919532757 66.0 10.353500188685501
  endloop
endfacet
facet normal 0.27750771441808353 0.0 -0.960723408915621
  outer loop
    vertex 18.565485526238174 68.0 10.6613874035203
    vertex 17.49958919532757 66.0 10.353500188685501
    vertex 17.49958919532757 68.0 10.353500188685501
  endloop
endfacet
facet normal 0.27750771441808353 0.0 -0.960723408915621
  outer loop
    vertex 17.49958919532757 66.0 10.353500188685501
    vertex 18.565485526238174 68.0 10.6613874035203
    vertex 18.565485526238174 66.0 10.6613874035203
  endloop
endfacet
facet normal 0.019398353047697207 0.0 -0.9998118342463431
  outer loop
    vertex 19.674749395354294 68.0 10.682909345368875
    vertex 18.565485526238174 66.0 10.6613874035203
    vertex 18.565485526238174 68.0 10.6613874035203
  endloop
endfacet
facet normal 0.019398353047697207 0.0 -0.9998118342463431
  outer loop
    vertex 18.565485526238174 66.0 10.6613874035203
    vertex 19.674749395354294 68.0 10.682909345368875
    vertex 19.674749395354294 66.0 10.682909345368875
  endloop
endfacet
facet normal -0.24003297402559323 -0.0 -0.9707647353403548
  outer loop
    vertex 20.751786303140896 68.0 10.416599329460947
    vertex 19.674749395354294 66.0 10.682909345368875
    vertex 19.674749395354294 68.0 10.682909345368875
  endloop
endfacet
facet normal -0.24003297402559323 -0.0 -0.9707647353403548
  outer loop
    vertex 19.674749395354294 66.0 10.682909345368875
    vertex 20.751786303140896 68.0 10.416599329460947
    vertex 20.751786303140896 66.0 10.416599329460947
  endloop
endfacet
facet normal -0.4831064505922855 -0.0 -0.8755616239854987
  outer loop
    vertex 21.72319796421997 68.0 9.880605943282523
    vertex 20.751786303140896 66.0 10.416599329460947
    vertex 20.751786303140896 68.0 10.416599329460947
  endloop
endfacet
facet normal -0.4831064505922855 -0.0 -0.8755616239854987
  outer loop
    vertex 20.751786303140896 66.0 10.416599329460947
    vertex 21.72319796421997 68.0 9.880605943282523
    vertex 21.72319796421997 66.0 9.880605943282523
  endloop
endfacet
facet normal -0.6932570209222714 -0.0 -0.7206904348900278
  outer loop
    vertex 22.522784279222638 68.0 9.111456250330718
    vertex 21.72319796421997 66.0 9.880605943282523
    vertex 21.72319796421997 68.0 9.880605943282523
  endloop
endfacet
facet normal -0.6932570209222714 -0.0 -0.7206904348900278
  outer loop
    vertex 21.72319796421997 66.0 9.880605943282523
    vertex 22.522784279222638 68.0 9.111456250330718
    vertex 22.522784279222638 66.0 9.111456250330718
  endloop
endfacet
facet normal -0.8561632709378006 -0.0 -0.5167053836540569
  outer loop
    vertex 22.522784279222638 68.0 9.111456250330718
    vertex 22.8291001397938 66.0 8.60390127331055
    vertex 22.522784279222638 66.0 9.111456250330718
  endloop
endfacet
facet normal -0.8561632709378006 -0.0 -0.5167053836540569
  outer loop
    vertex 22.8291001397938 66.0 8.60390127331055
    vertex 22.522784279222638 68.0 9.111456250330718
    vertex 22.8291001397938 68.0 8.60390127331055
  endloop
endfacet
facet normal -0.8561632709378008 -0.0 -0.5167053836540566
  outer loop
    vertex 22.8291001397938 68.0 8.60390127331055
    vertex 23.096054762160342 66.0 8.161566531100226
    vertex 22.8291001397938 66.0 8.60390127331055
  endloop
endfacet
facet normal -0.8561632709378008 -0.0 -0.5167053836540566
  outer loop
    vertex 23.096054762160342 66.0 8.161566531100226
    vertex 22.8291001397938 68.0 8.60390127331055
    vertex 23.096054762160342 68.0 8.161566531100226
  endloop
endfacet
facet normal -0.9607234089156208 -0.0 -0.2775077144180842
  outer loop
    vertex 23.096054762160342 68.0 8.161566531100226
    vertex 23.40394197699514 66.0 7.095670200189628
    vertex 23.096054762160342 66.0 8.161566531100226
  endloop
endfacet
facet normal -0.9607234089156208 -0.0 -0.2775077144180842
  outer loop
    vertex 23.40394197699514 66.0 7.095670200189628
    vertex 23.096054762160342 68.0 8.161566531100226
    vertex 23.40394197699514 68.0 7.095670200189628
  endloop
endfacet
facet normal -0.999811834246343 -0.0 -0.0193983530476959
  outer loop
    vertex 23.40394197699514 68.0 7.095670200189628
    vertex 23.425463918843715 66.0 5.9864063310735025
    vertex 23.40394197699514 66.0 7.095670200189628
  endloop
endfacet
facet normal -0.999811834246343 -0.0 -0.0193983530476959
  outer loop
    vertex 23.425463918843715 66.0 5.9864063310735025
    vertex 23.40394197699514 68.0 7.095670200189628
    vertex 23.425463918843715 68.0 5.9864063310735025
  endloop
endfacet
facet normal -0.9707647353403548 0.0 0.24003297402559323
  outer loop
    vertex 23.425463918843715 68.0 5.9864063310735025
    vertex 23.159153902935785 66.0 4.909369423286901
    vertex 23.425463918843715 66.0 5.9864063310735025
  endloop
endfacet
facet normal -0.9707647353403548 0.0 0.24003297402559323
  outer loop
    vertex 23.159153902935785 66.0 4.909369423286901
    vertex 23.425463918843715 68.0 5.9864063310735025
    vertex 23.159153902935785 68.0 4.909369423286901
  endloop
endfacet
facet normal -0.8755616239854992 0.0 0.48310645059228463
  outer loop
    vertex 23.159153902935785 68.0 4.909369423286901
    vertex 22.623160516757363 66.0 3.9379577622078314
    vertex 23.159153902935785 66.0 4.909369423286901
  endloop
endfacet
facet normal -0.8755616239854992 0.0 0.48310645059228463
  outer loop
    vertex 22.623160516757363 66.0 3.9379577622078314
    vertex 23.159153902935785 68.0 4.909369423286901
    vertex 22.623160516757363 68.0 3.9379577622078314
  endloop
endfacet
facet normal -0.7206904348900272 0.0 0.6932570209222721
  outer loop
    vertex 22.623160516757363 68.0 3.9379577622078314
    vertex 21.854010823805556 66.0 3.1383714472051607
    vertex 22.623160516757363 66.0 3.9379577622078314
  endloop
endfacet
facet normal -0.7206904348900272 0.0 0.6932570209222721
  outer loop
    vertex 21.854010823805556 66.0 3.1383714472051607
    vertex 22.623160516757363 68.0 3.9379577622078314
    vertex 21.854010823805556 68.0 3.1383714472051607
  endloop
endfacet
facet normal -0.5167053836540569 0.0 0.8561632709378008
  outer loop
    vertex 21.854010823805556 66.0 3.1383714472051607
    vertex 20.904121104575065 68.0 2.565100964267459
    vertex 20.904121104575065 66.0 2.565100964267459
  endloop
endfacet
facet normal -0.5167053836540569 0.0 0.8561632709378008
  outer loop
    vertex 20.904121104575065 68.0 2.565100964267459
    vertex 21.854010823805556 66.0 3.1383714472051607
    vertex 21.854010823805556 68.0 3.1383714472051607
  endloop
endfacet
facet normal -0.27750771441808236 0.0 0.9607234089156212
  outer loop
    vertex 20.904121104575065 66.0 2.565100964267459
    vertex 19.838224773664464 68.0 2.2572137494326636
    vertex 19.838224773664464 66.0 2.2572137494326636
  endloop
endfacet
facet normal -0.27750771441808236 0.0 0.9607234089156212
  outer loop
    vertex 19.838224773664464 68.0 2.2572137494326636
    vertex 20.904121104575065 66.0 2.565100964267459
    vertex 20.904121104575065 68.0 2.565100964267459
  endloop
endfacet
facet normal -0.019398353047698477 0.0 0.9998118342463431
  outer loop
    vertex 19.838224773664464 66.0 2.2572137494326636
    vertex 18.72896090454834 68.0 2.235691807584085
    vertex 18.72896090454834 66.0 2.235691807584085
  endloop
endfacet
facet normal -0.019398353047698477 0.0 0.9998118342463431
  outer loop
    vertex 18.72896090454834 68.0 2.235691807584085
    vertex 19.838224773664464 66.0 2.2572137494326636
    vertex 19.838224773664464 68.0 2.2572137494326636
  endloop
endfacet
facet normal 0.24003297402559323 0.0 0.9707647353403548
  outer loop
    vertex 18.72896090454834 66.0 2.235691807584085
    vertex 17.651923996761738 68.0 2.502001823492014
    vertex 17.651923996761738 66.0 2.502001823492014
  endloop
endfacet
facet normal 0.24003297402559323 0.0 0.9707647353403548
  outer loop
    vertex 17.651923996761738 68.0 2.502001823492014
    vertex 18.72896090454834 66.0 2.235691807584085
    vertex 18.72896090454834 68.0 2.235691807584085
  endloop
endfacet
facet normal 0.4831064505922856 0.0 0.8755616239854986
  outer loop
    vertex 17.651923996761738 66.0 2.502001823492014
    vertex 16.68051233568267 68.0 3.037995209670436
    vertex 16.68051233568267 66.0 3.037995209670436
  endloop
endfacet
facet normal 0.4831064505922856 0.0 0.8755616239854986
  outer loop
    vertex 16.68051233568267 68.0 3.037995209670436
    vertex 17.651923996761738 66.0 2.502001823492014
    vertex 17.651923996761738 68.0 2.502001823492014
  endloop
endfacet
facet normal 0.6932570209222717 0.0 0.7206904348900275
  outer loop
    vertex 16.68051233568267 66.0 3.037995209670436
    vertex 15.88092602068 68.0 3.8071449026222415
    vertex 15.88092602068 66.0 3.8071449026222415
  endloop
endfacet
facet normal 0.6932570209222717 0.0 0.7206904348900275
  outer loop
    vertex 15.88092602068 68.0 3.8071449026222415
    vertex 16.68051233568267 66.0 3.037995209670436
    vertex 16.68051233568267 68.0 3.037995209670436
  endloop
endfacet
facet normal 0.8561632709377992 0.0 0.5167053836540593
  outer loop
    vertex 15.88092602068 68.0 3.8071449026222415
    vertex 15.307655537742296 66.0 4.757034621852733
    vertex 15.88092602068 66.0 3.8071449026222415
  endloop
endfacet
facet normal 0.8561632709377992 0.0 0.5167053836540593
  outer loop
    vertex 15.307655537742296 66.0 4.757034621852733
    vertex 15.88092602068 68.0 3.8071449026222415
    vertex 15.307655537742296 68.0 4.757034621852733
  endloop
endfacet
facet normal 0.9607234089156216 0.0 0.2775077144180813
  outer loop
    vertex 15.307655537742296 68.0 4.757034621852733
    vertex 14.999768322907501 66.0 5.8229309527633335
    vertex 15.307655537742296 66.0 4.757034621852733
  endloop
endfacet
facet normal 0.9607234089156216 0.0 0.2775077144180813
  outer loop
    vertex 14.999768322907501 66.0 5.8229309527633335
    vertex 15.307655537742296 68.0 4.757034621852733
    vertex 14.999768322907501 68.0 5.8229309527633335
  endloop
endfacet
facet normal 0.9998118342463431 0.0 0.019398353047698477
  outer loop
    vertex 14.999768322907501 68.0 5.8229309527633335
    vertex 14.978246381058923 66.0 6.932194821879456
    vertex 14.999768322907501 66.0 5.8229309527633335
  endloop
endfacet
facet normal 0.9998118342463431 0.0 0.019398353047698477
  outer loop
    vertex 14.978246381058923 66.0 6.932194821879456
    vertex 14.999768322907501 68.0 5.8229309527633335
    vertex 14.978246381058923 68.0 6.932194821879456
  endloop
endfacet
facet normal 0.9707647353403548 0.0 -0.2400329740255929
  outer loop
    vertex 14.978246381058923 68.0 6.932194821879456
    vertex 15.244556396966852 66.0 8.009231729666059
    vertex 14.978246381058923 66.0 6.932194821879456
  endloop
endfacet
facet normal 0.9707647353403548 0.0 -0.2400329740255929
  outer loop
    vertex 15.244556396966852 66.0 8.009231729666059
    vertex 14.978246381058923 68.0 6.932194821879456
    vertex 15.244556396966852 68.0 8.009231729666059
  endloop
endfacet
facet normal 0.8755616239854987 0.0 -0.4831064505922855
  outer loop
    vertex 15.244556396966852 68.0 8.009231729666059
    vertex 15.780549783145275 66.0 8.980643390745131
    vertex 15.244556396966852 66.0 8.009231729666059
  endloop
endfacet
facet normal 0.8755616239854987 0.0 -0.4831064505922855
  outer loop
    vertex 15.780549783145275 66.0 8.980643390745131
    vertex 15.244556396966852 68.0 8.009231729666059
    vertex 15.780549783145275 68.0 8.980643390745131
  endloop
endfacet
facet normal 2.3197279685491322e-16 -1.0 -2.05224013627798e-16
  outer loop
    vertex 37.999999999999986 66.0 1.762479051592436e-16
    vertex 19.838224773664464 66.0 2.2572137494326636
    vertex 7.000000000000003 65.99999999999999 1.400331570277134e-15
  endloop
endfacet
facet normal 2.3197279685491322e-16 -1.0 -2.05224013627798e-16
  outer loop
    vertex 19.838224773664464 66.0 2.2572137494326636
    vertex 37.999999999999986 66.0 1.762479051592436e-16
    vertex 20.904121104575065 66.0 2.565100964267459
  endloop
endfacet
facet normal 2.3197279685491322e-16 -1.0 -2.05224013627798e-16
  outer loop
    vertex 20.904121104575065 66.0 2.565100964267459
    vertex 37.999999999999986 66.0 1.762479051592436e-16
    vertex 21.854010823805556 66.0 3.1383714472051607
  endloop
endfacet
facet normal 2.3197279685491322e-16 -1.0 -2.05224013627798e-16
  outer loop
    vertex 21.854010823805556 66.0 3.1383714472051607
    vertex 37.999999999999986 66.0 1.762479051592436e-16
    vertex 22.623160516757363 66.0 3.9379577622078314
  endloop
endfacet
facet normal 2.3197279685491322e-16 -1.0 -2.05224013627798e-16
  outer loop
    vertex 22.623160516757363 66.0 3.9379577622078314
    vertex 37.999999999999986 66.0 1.762479051592436e-16
    vertex 23.159153902935785 66.0 4.909369423286901
  endloop
endfacet
facet normal 2.3197279685491322e-16 -1.0 -2.05224013627798e-16
  outer loop
    vertex 23.159153902935785 66.0 4.909369423286901
    vertex 37.999999999999986 66.0 1.762479051592436e-16
    vertex 37.999999999999986 65.99999999999999 38.00000000000001
  endloop
endfacet
facet normal 2.3197279685491322e-16 -1.0 -2.05224013627798e-16
  outer loop
    vertex 7.000000000000003 65.99999999999999 1.400331570277134e-15
    vertex 19.838224773664464 66.0 2.2572137494326636
    vertex 7.000000000000003 65.99999999999999 2.0000000000000013
  endloop
endfacet
facet normal 2.3197279685491322e-16 -1.0 -2.05224013627798e-16
  outer loop
    vertex 7.000000000000003 65.99999999999999 2.0000000000000013
    vertex 19.838224773664464 66.0 2.2572137494326636
    vertex 18.72896090454834 66.0 2.235691807584085
  endloop
endfacet
facet normal 2.3197279685491322e-16 -1.0 -2.05224013627798e-16
  outer loop
    vertex 7.000000000000003 65.99999999999999 2.0000000000000013
    vertex 18.72896090454834 66.0 2.235691807584085
    vertex -1.1901518330124115e-32 65.99999999999999 2.0000000000000013
  endloop
endfacet
facet normal 2.3197279685491322e-16 -1.0 -2.05224013627798e-16
  outer loop
    vertex 23.159153902935785 66.0 4.909369423286901
    vertex 37.999999999999986 65.99999999999999 38.00000000000001
    vertex 23.425463918843715 66.0 5.9864063310735025
  endloop
endfacet
facet normal 2.3197279685491322e-16 -1.0 -2.05224013627798e-16
  outer loop
    vertex 23.425463918843715 66.0 5.9864063310735025
    vertex 37.999999999999986 65.99999999999999 38.00000000000001
    vertex 23.40394197699514 66.0 7.095670200189628
  endloop
endfacet
facet normal 2.3197279685491322e-16 -1.0 -2.05224013627798e-16
  outer loop
    vertex 23.40394197699514 66.0 7.095670200189628
    vertex 37.999999999999986 65.99999999999999 38.00000000000001
    vertex 23.096054762160342 66.0 8.161566531100226
  endloop
endfacet
facet normal 2.3197279685491322e-16 -1.0 -2.05224013627798e-16
  outer loop
    vertex 23.096054762160342 66.0 8.161566531100226
    vertex 37.999999999999986 65.99999999999999 38.00000000000001
    vertex 22.8291001397938 66.0 8.60390127331055
  endloop
endfacet
facet normal 2.3197279685491322e-16 -1.0 -2.05224013627798e-16
  outer loop
    vertex 22.8291001397938 66.0 8.60390127331055
    vertex 37.999999999999986 65.99999999999999 38.00000000000001
    vertex 22.522784279222638 66.0 9.111456250330718
  endloop
endfacet
facet normal 2.3197279685491322e-16 -1.0 -2.05224013627798e-16
  outer loop
    vertex 22.522784279222638 66.0 9.111456250330718
    vertex 37.999999999999986 65.99999999999999 38.00000000000001
    vertex 21.72319796421997 66.0 9.880605943282523
  endloop
endfacet
facet normal 2.3197279685491322e-16 -1.0 -2.05224013627798e-16
  outer loop
    vertex 21.72319796421997 66.0 9.880605943282523
    vertex 37.999999999999986 65.99999999999999 38.00000000000001
    vertex 20.751786303140896 66.0 10.416599329460947
  endloop
endfacet
facet normal 2.3197279685491322e-16 -1.0 -2.05224013627798e-16
  outer loop
    vertex 20.751786303140896 66.0 10.416599329460947
    vertex 37.999999999999986 65.99999999999999 38.00000000000001
    vertex 19.674749395354294 66.0 10.682909345368875
  endloop
endfacet
facet normal 2.3197279685491322e-16 -1.0 -2.05224013627798e-16
  outer loop
    vertex -1.1901518330124115e-32 65.99999999999999 2.0000000000000013
    vertex 15.307655537742296 66.0 4.757034621852733
    vertex 5.551115123125782e-17 65.99999999999999 38.00000000000001
  endloop
endfacet
facet normal 2.3197279685491322e-16 -1.0 -2.05224013627798e-16
  outer loop
    vertex 15.307655537742296 66.0 4.757034621852733
    vertex -1.1901518330124115e-32 65.99999999999999 2.0000000000000013
    vertex 15.88092602068 66.0 3.8071449026222415
  endloop
endfacet
facet normal 2.3197279685491322e-16 -1.0 -2.05224013627798e-16
  outer loop
    vertex 15.88092602068 66.0 3.8071449026222415
    vertex -1.1901518330124115e-32 65.99999999999999 2.0000000000000013
    vertex 16.68051233568267 66.0 3.037995209670436
  endloop
endfacet
facet normal 2.3197279685491322e-16 -1.0 -2.05224013627798e-16
  outer loop
    vertex 16.68051233568267 66.0 3.037995209670436
    vertex -1.1901518330124115e-32 65.99999999999999 2.0000000000000013
    vertex 17.651923996761738 66.0 2.502001823492014
  endloop
endfacet
facet normal 2.3197279685491322e-16 -1.0 -2.05224013627798e-16
  outer loop
    vertex 17.651923996761738 66.0 2.502001823492014
    vertex -1.1901518330124115e-32 65.99999999999999 2.0000000000000013
    vertex 18.72896090454834 66.0 2.235691807584085
  endloop
endfacet
facet normal 2.3197279685491322e-16 -1.0 -2.05224013627798e-16
  outer loop
    vertex 5.551115123125782e-17 65.99999999999999 38.00000000000001
    vertex 15.307655537742296 66.0 4.757034621852733
    vertex 14.999768322907501 66.0 5.8229309527633335
  endloop
endfacet
facet normal 2.3197279685491322e-16 -1.0 -2.05224013627798e-16
  outer loop
    vertex 5.551115123125782e-17 65.99999999999999 38.00000000000001
    vertex 14.999768322907501 66.0 5.8229309527633335
    vertex 14.978246381058923 66.0 6.932194821879456
  endloop
endfacet
facet normal 2.3197279685491322e-16 -1.0 -2.05224013627798e-16
  outer loop
    vertex 5.551115123125782e-17 65.99999999999999 38.00000000000001
    vertex 14.978246381058923 66.0 6.932194821879456
    vertex 15.244556396966852 66.0 8.009231729666059
  endloop
endfacet
facet normal 2.3197279685491322e-16 -1.0 -2.05224013627798e-16
  outer loop
    vertex 5.551115123125782e-17 65.99999999999999 38.00000000000001
    vertex 15.244556396966852 66.0 8.009231729666059
    vertex 15.780549783145275 66.0 8.980643390745131
  endloop
endfacet
facet normal 2.3197279685491322e-16 -1.0 -2.05224013627798e-16
  outer loop
    vertex 5.551115123125782e-17 65.99999999999999 38.00000000000001
    vertex 15.780549783145275 66.0 8.980643390745131
    vertex 16.15336482099273 66.0 9.368211383064025
  endloop
endfacet
facet normal 2.3197279685491322e-16 -1.0 -2.05224013627798e-16
  outer loop
    vertex 5.551115123125782e-17 65.99999999999999 38.00000000000001
    vertex 16.15336482099273 66.0 9.368211383064025
    vertex 16.549699476097082 66.0 9.7802297057478
  endloop
endfacet
facet normal 2.3197279685491322e-16 -1.0 -2.05224013627798e-16
  outer loop
    vertex 5.551115123125782e-17 65.99999999999999 38.00000000000001
    vertex 16.549699476097082 66.0 9.7802297057478
    vertex 17.49958919532757 66.0 10.353500188685501
  endloop
endfacet
facet normal 2.3197279685491322e-16 -1.0 -2.05224013627798e-16
  outer loop
    vertex 5.551115123125782e-17 65.99999999999999 38.00000000000001
    vertex 17.49958919532757 66.0 10.353500188685501
    vertex 18.565485526238174 66.0 10.6613874035203
  endloop
endfacet
facet normal 2.3197279685491322e-16 -1.0 -2.05224013627798e-16
  outer loop
    vertex 5.551115123125782e-17 65.99999999999999 38.00000000000001
    vertex 18.565485526238174 66.0 10.6613874035203
    vertex 19.674749395354294 66.0 10.682909345368875
  endloop
endfacet
facet normal 2.3197279685491322e-16 -1.0 -2.05224013627798e-16
  outer loop
    vertex 5.551115123125782e-17 65.99999999999999 38.00000000000001
    vertex 19.674749395354294 66.0 10.682909345368875
    vertex 37.999999999999986 65.99999999999999 38.00000000000001
  endloop
endfacet
facet normal -1.0 1.2190391510065142e-17 1.0263587695324883e-18
  outer loop
    vertex 5.551115123125782e-17 67.0 38.00000000000001
    vertex -1.1901518330124115e-32 65.99999999999999 2.0000000000000013
    vertex 5.551115123125782e-17 65.99999999999999 38.00000000000001
  endloop
endfacet
facet normal -1.0 1.2190391510065142e-17 1.0263587695324883e-18
  outer loop
    vertex -1.1901518330124115e-32 65.99999999999999 2.0000000000000013
    vertex 5.551115123125782e-17 67.0 38.00000000000001
    vertex 1.61907524424502e-17 65.99999999999999 8.172447507086354e-16
  endloop
endfacet
facet normal -1.0 1.2190391510065142e-17 1.0263587695324883e-18
  outer loop
    vertex 1.61907524424502e-17 65.99999999999999 8.172447507086354e-16
    vertex 5.551115123125782e-17 67.0 38.00000000000001
    vertex 2.775557561562891e-17 67.0 8.686503897134149e-16
  endloop
endfacet
facet normal 0.0 -1.0 0.0
  outer loop
    vertex 7.000000000000003 65.99999999999999 1.400331570277134e-15
    vertex -1.1901518330124115e-32 65.99999999999999 2.0000000000000013
    vertex 1.61907524424502e-17 65.99999999999999 8.172447507086354e-16
  endloop
endfacet
facet normal 0.0 -1.0 0.0
  outer loop
    vertex -1.1901518330124115e-32 65.99999999999999 2.0000000000000013
    vertex 7.000000000000003 65.99999999999999 1.400331570277134e-15
    vertex 7.000000000000003 65.99999999999999 2.0000000000000013
  endloop
endfacet
facet normal -2.0391748311911002e-17 5.864241401577584e-17 -1.0
  outer loop
    vertex 37.999999999999986 68.0 3.524958103184872e-16
    vertex -0.9999999999999999 67.0 8.697460045403477e-16
    vertex -0.9999999999999999 68.0 1.4110788561008815e-15
  endloop
endfacet
facet normal -2.0391748311911002e-17 5.864241401577584e-17 -1.0
  outer loop
    vertex -0.9999999999999999 67.0 8.697460045403477e-16
    vertex 37.999999999999986 68.0 3.524958103184872e-16
    vertex 2.775557561562891e-17 67.0 8.686503897134149e-16
  endloop
endfacet
facet normal -2.0391748311911002e-17 5.864241401577584e-17 -1.0
  outer loop
    vertex 2.775557561562891e-17 67.0 8.686503897134149e-16
    vertex 37.999999999999986 68.0 3.524958103184872e-16
    vertex 7.000000000000003 65.99999999999999 1.400331570277134e-15
  endloop
endfacet
facet normal -2.0391748311911002e-17 5.864241401577584e-17 -1.0
  outer loop
    vertex 7.000000000000003 65.99999999999999 1.400331570277134e-15
    vertex 37.999999999999986 68.0 3.524958103184872e-16
    vertex 37.999999999999986 66.0 1.762479051592436e-16
  endloop
endfacet
facet normal -2.0391748311911002e-17 5.864241401577584e-17 -1.0
  outer loop
    vertex 7.000000000000003 65.99999999999999 1.400331570277134e-15
    vertex 1.61907524424502e-17 65.99999999999999 8.172447507086354e-16
    vertex 2.775557561562891e-17 67.0 8.686503897134149e-16
  endloop
endfacet
facet normal -0.6779876570117118 0.7350732867815082 0.0
  outer loop
    vertex 4.652482122985737 60.86544043969076 2.0000000000000013
    vertex 5.036267391490808 61.21942102865849 1.4099832412739487e-15
    vertex 4.652482122985737 60.86544043969076 1.4099832412739487e-15
  endloop
endfacet
facet normal -0.6779876570117118 0.7350732867815082 0.0
  outer loop
    vertex 5.036267391490808 61.21942102865849 1.4099832412739487e-15
    vertex 4.652482122985737 60.86544043969076 2.0000000000000013
    vertex 5.036267391490808 61.21942102865849 2.0000000000000013
  endloop
endfacet
facet normal -0.8451367539779899 0.5345501539383807 0.0
  outer loop
    vertex 5.315358576067686 61.66067095826634 2.0000000000000013
    vertex 5.036267391490808 61.21942102865849 1.4099832412739487e-15
    vertex 5.036267391490808 61.21942102865849 2.0000000000000013
  endloop
endfacet
facet normal -0.8451367539779899 0.5345501539383807 0.0
  outer loop
    vertex 5.036267391490808 61.21942102865849 1.4099832412739487e-15
    vertex 5.315358576067686 61.66067095826634 2.0000000000000013
    vertex 5.315358576067686 61.66067095826634 1.4099832412739487e-15
  endloop
endfacet
facet normal -0.9546911778151888 0.29759831149025034 0.0
  outer loop
    vertex 5.470736073707442 62.159119775011504 2.0000000000000013
    vertex 5.315358576067686 61.66067095826634 1.4099832412739487e-15
    vertex 5.315358576067686 61.66067095826634 2.0000000000000013
  endloop
endfacet
facet normal -0.9546911778151888 0.29759831149025034 0.0
  outer loop
    vertex 5.315358576067686 61.66067095826634 1.4099832412739487e-15
    vertex 5.470736073707442 62.159119775011504 2.0000000000000013
    vertex 5.470736073707442 62.159119775011504 1.4099832412739487e-15
  endloop
endfacet
facet normal -0.9991849755860491 0.04036563591852226 0.0
  outer loop
    vertex 5.491811164719385 62.68079901575844 2.0000000000000013
    vertex 5.470736073707442 62.159119775011504 1.4099832412739487e-15
    vertex 5.470736073707442 62.159119775011504 2.0000000000000013
  endloop
endfacet
facet normal -0.9991849755860491 0.04036563591852226 0.0
  outer loop
    vertex 5.470736073707442 62.159119775011504 1.4099832412739487e-15
    vertex 5.491811164719385 62.68079901575844 2.0000000000000013
    vertex 5.491811164719385 62.68079901575844 1.4099832412739487e-15
  endloop
endfacet
facet normal -0.9755859685019648 -0.21961789103368531 -0.0
  outer loop
    vertex 5.377147616479284 63.19015710236593 2.0000000000000013
    vertex 5.491811164719385 62.68079901575844 1.4099832412739487e-15
    vertex 5.491811164719385 62.68079901575844 2.0000000000000013
  endloop
endfacet
facet normal -0.9755859685019648 -0.21961789103368531 -0.0
  outer loop
    vertex 5.491811164719385 62.68079901575844 1.4099832412739487e-15
    vertex 5.377147616479284 63.19015710236593 2.0000000000000013
    vertex 5.377147616479284 63.19015710236593 1.4099832412739487e-15
  endloop
endfacet
facet normal -0.8855023898965163 -0.4646348216476654 -0.0
  outer loop
    vertex 5.134559560309232 63.652482122985724 2.0000000000000013
    vertex 5.377147616479284 63.19015710236593 1.4099832412739487e-15
    vertex 5.377147616479284 63.19015710236593 2.0000000000000013
  endloop
endfacet
facet normal -0.8855023898965163 -0.4646348216476654 -0.0
  outer loop
    vertex 5.377147616479284 63.19015710236593 1.4099832412739487e-15
    vertex 5.134559560309232 63.652482122985724 2.0000000000000013
    vertex 5.134559560309232 63.652482122985724 1.4099832412739487e-15
  endloop
endfacet
facet normal -0.7350732867815005 -0.6779876570117203 -0.0
  outer loop
    vertex 4.780578971341496 64.0362673914908 2.0000000000000013
    vertex 5.134559560309232 63.652482122985724 1.4099832412739487e-15
    vertex 5.134559560309232 63.652482122985724 2.0000000000000013
  endloop
endfacet
facet normal -0.7350732867815005 -0.6779876570117203 -0.0
  outer loop
    vertex 5.134559560309232 63.652482122985724 1.4099832412739487e-15
    vertex 4.780578971341496 64.0362673914908 2.0000000000000013
    vertex 4.780578971341496 64.0362673914908 1.4099832412739487e-15
  endloop
endfacet
facet normal -0.5345501539383757 -0.8451367539779934 -0.0
  outer loop
    vertex 4.780578971341496 64.0362673914908 2.0000000000000013
    vertex 4.339329041733649 64.31535857606767 1.4099832412739487e-15
    vertex 4.780578971341496 64.0362673914908 1.4099832412739487e-15
  endloop
endfacet
facet normal -0.5345501539383757 -0.8451367539779934 -0.0
  outer loop
    vertex 4.339329041733649 64.31535857606767 1.4099832412739487e-15
    vertex 4.780578971341496 64.0362673914908 2.0000000000000013
    vertex 4.339329041733649 64.31535857606767 2.0000000000000013
  endloop
endfacet
facet normal -0.2975983114902541 -0.9546911778151874 -0.0
  outer loop
    vertex 4.339329041733649 64.31535857606767 2.0000000000000013
    vertex 3.840880224988477 64.47073607370743 1.4099832412739487e-15
    vertex 4.339329041733649 64.31535857606767 1.4099832412739487e-15
  endloop
endfacet
facet normal -0.2975983114902541 -0.9546911778151874 -0.0
  outer loop
    vertex 3.840880224988477 64.47073607370743 1.4099832412739487e-15
    vertex 4.339329041733649 64.31535857606767 2.0000000000000013
    vertex 3.840880224988477 64.47073607370743 2.0000000000000013
  endloop
endfacet
facet normal -0.040365635918533316 -0.9991849755860486 -0.0
  outer loop
    vertex 3.840880224988477 64.47073607370743 2.0000000000000013
    vertex 3.319200984241547 64.49181116471938 1.4099832412739487e-15
    vertex 3.840880224988477 64.47073607370743 1.4099832412739487e-15
  endloop
endfacet
facet normal -0.040365635918533316 -0.9991849755860486 -0.0
  outer loop
    vertex 3.319200984241547 64.49181116471938 1.4099832412739487e-15
    vertex 3.840880224988477 64.47073607370743 2.0000000000000013
    vertex 3.319200984241547 64.49181116471938 2.0000000000000013
  endloop
endfacet
facet normal 0.2196178910336877 -0.9755859685019641 0.0
  outer loop
    vertex 3.319200984241547 64.49181116471938 2.0000000000000013
    vertex 2.809842897634056 64.37714761647928 1.4099832412739487e-15
    vertex 3.319200984241547 64.49181116471938 1.4099832412739487e-15
  endloop
endfacet
facet normal 0.2196178910336877 -0.9755859685019641 0.0
  outer loop
    vertex 2.809842897634056 64.37714761647928 1.4099832412739487e-15
    vertex 3.319200984241547 64.49181116471938 2.0000000000000013
    vertex 2.809842897634056 64.37714761647928 2.0000000000000013
  endloop
endfacet
facet normal 0.46463482164767944 -0.8855023898965092 0.0
  outer loop
    vertex 2.809842897634056 64.37714761647928 2.0000000000000013
    vertex 2.3475178770142655 64.13455956030921 1.4099832412739487e-15
    vertex 2.809842897634056 64.37714761647928 1.4099832412739487e-15
  endloop
endfacet
facet normal 0.46463482164767944 -0.8855023898965092 0.0
  outer loop
    vertex 2.3475178770142655 64.13455956030921 1.4099832412739487e-15
    vertex 2.809842897634056 64.37714761647928 2.0000000000000013
    vertex 2.3475178770142655 64.13455956030921 2.0000000000000013
  endloop
endfacet
facet normal 0.6779876570117122 -0.7350732867815079 0.0
  outer loop
    vertex 2.3475178770142655 64.13455956030921 2.0000000000000013
    vertex 1.963732608509194 63.780578971341484 1.4099832412739487e-15
    vertex 2.3475178770142655 64.13455956030921 1.4099832412739487e-15
  endloop
endfacet
facet normal 0.6779876570117122 -0.7350732867815079 0.0
  outer loop
    vertex 1.963732608509194 63.780578971341484 1.4099832412739487e-15
    vertex 2.3475178770142655 64.13455956030921 2.0000000000000013
    vertex 1.963732608509194 63.780578971341484 2.0000000000000013
  endloop
endfacet
facet normal 0.8451367539779903 -0.5345501539383802 0.0
  outer loop
    vertex 1.963732608509194 63.780578971341484 1.4099832412739487e-15
    vertex 1.684641423932317 63.339329041733635 2.0000000000000013
    vertex 1.684641423932317 63.339329041733635 1.4099832412739487e-15
  endloop
endfacet
facet normal 0.8451367539779903 -0.5345501539383802 0.0
  outer loop
    vertex 1.684641423932317 63.339329041733635 2.0000000000000013
    vertex 1.963732608509194 63.780578971341484 1.4099832412739487e-15
    vertex 1.963732608509194 63.780578971341484 2.0000000000000013
  endloop
endfacet
facet normal 0.9546911778151884 -0.29759831149025096 0.0
  outer loop
    vertex 1.684641423932317 63.339329041733635 1.4099832412739487e-15
    vertex 1.5292639262925605 62.84088022498847 2.0000000000000013
    vertex 1.5292639262925605 62.84088022498847 1.4099832412739487e-15
  endloop
endfacet
facet normal 0.9546911778151884 -0.29759831149025096 0.0
  outer loop
    vertex 1.5292639262925605 62.84088022498847 2.0000000000000013
    vertex 1.684641423932317 63.339329041733635 1.4099832412739487e-15
    vertex 1.684641423932317 63.339329041733635 2.0000000000000013
  endloop
endfacet
facet normal 0.9991849755860491 -0.04036563591852226 0.0
  outer loop
    vertex 1.5292639262925605 62.84088022498847 1.4099832412739487e-15
    vertex 1.5081888352806176 62.31920098424153 2.0000000000000013
    vertex 1.5081888352806176 62.31920098424153 1.4099832412739487e-15
  endloop
endfacet
facet normal 0.9991849755860491 -0.04036563591852226 0.0
  outer loop
    vertex 1.5081888352806176 62.31920098424153 2.0000000000000013
    vertex 1.5292639262925605 62.84088022498847 1.4099832412739487e-15
    vertex 1.5292639262925605 62.84088022498847 2.0000000000000013
  endloop
endfacet
facet normal 0.975585968501965 0.219617891033684 0.0
  outer loop
    vertex 1.5081888352806176 62.31920098424153 1.4099832412739487e-15
    vertex 1.6228523835207176 61.80984289763404 2.0000000000000013
    vertex 1.6228523835207176 61.80984289763404 1.4099832412739487e-15
  endloop
endfacet
facet normal 0.975585968501965 0.219617891033684 0.0
  outer loop
    vertex 1.6228523835207176 61.80984289763404 2.0000000000000013
    vertex 1.5081888352806176 62.31920098424153 1.4099832412739487e-15
    vertex 1.5081888352806176 62.31920098424153 2.0000000000000013
  endloop
endfacet
facet normal 0.8855023898965159 0.4646348216476665 0.0
  outer loop
    vertex 1.6228523835207176 61.80984289763404 1.4099832412739487e-15
    vertex 1.8654404396907707 61.34751787701425 2.0000000000000013
    vertex 1.8654404396907707 61.34751787701425 1.4099832412739487e-15
  endloop
endfacet
facet normal 0.8855023898965159 0.4646348216476665 0.0
  outer loop
    vertex 1.8654404396907707 61.34751787701425 2.0000000000000013
    vertex 1.6228523835207176 61.80984289763404 1.4099832412739487e-15
    vertex 1.6228523835207176 61.80984289763404 2.0000000000000013
  endloop
endfacet
facet normal 0.7350732867815011 0.6779876570117196 0.0
  outer loop
    vertex 1.8654404396907707 61.34751787701425 1.4099832412739487e-15
    vertex 2.2194210286585054 60.96373260850918 2.0000000000000013
    vertex 2.2194210286585054 60.96373260850918 1.4099832412739487e-15
  endloop
endfacet
facet normal 0.7350732867815011 0.6779876570117196 0.0
  outer loop
    vertex 2.2194210286585054 60.96373260850918 2.0000000000000013
    vertex 1.8654404396907707 61.34751787701425 1.4099832412739487e-15
    vertex 1.8654404396907707 61.34751787701425 2.0000000000000013
  endloop
endfacet
facet normal 0.5345501539383757 0.8451367539779934 0.0
  outer loop
    vertex 2.2194210286585054 60.96373260850918 2.0000000000000013
    vertex 2.6606709582663535 60.684641423932305 1.4099832412739487e-15
    vertex 2.2194210286585054 60.96373260850918 1.4099832412739487e-15
  endloop
endfacet
facet normal 0.5345501539383757 0.8451367539779934 0.0
  outer loop
    vertex 2.6606709582663535 60.684641423932305 1.4099832412739487e-15
    vertex 2.2194210286585054 60.96373260850918 2.0000000000000013
    vertex 2.6606709582663535 60.684641423932305 2.0000000000000013
  endloop
endfacet
facet normal 0.2975983114902541 0.9546911778151874 0.0
  outer loop
    vertex 2.6606709582663535 60.684641423932305 2.0000000000000013
    vertex 3.1591197750115247 60.52926392629254 1.4099832412739487e-15
    vertex 2.6606709582663535 60.684641423932305 1.4099832412739487e-15
  endloop
endfacet
facet normal 0.2975983114902541 0.9546911778151874 0.0
  outer loop
    vertex 3.1591197750115247 60.52926392629254 1.4099832412739487e-15
    vertex 2.6606709582663535 60.684641423932305 2.0000000000000013
    vertex 3.1591197750115247 60.52926392629254 2.0000000000000013
  endloop
endfacet
facet normal 0.040365635918533364 0.9991849755860486 0.0
  outer loop
    vertex 3.1591197750115247 60.52926392629254 2.0000000000000013
    vertex 3.6807990157584545 60.5081888352806 1.4099832412739487e-15
    vertex 3.1591197750115247 60.52926392629254 1.4099832412739487e-15
  endloop
endfacet
facet normal 0.040365635918533364 0.9991849755860486 0.0
  outer loop
    vertex 3.6807990157584545 60.5081888352806 1.4099832412739487e-15
    vertex 3.1591197750115247 60.52926392629254 2.0000000000000013
    vertex 3.6807990157584545 60.5081888352806 2.0000000000000013
  endloop
endfacet
facet normal -0.2196178910336873 0.9755859685019643 0.0
  outer loop
    vertex 3.6807990157584545 60.5081888352806 2.0000000000000013
    vertex 4.190157102365946 60.6228523835207 1.4099832412739487e-15
    vertex 3.6807990157584545 60.5081888352806 1.4099832412739487e-15
  endloop
endfacet
facet normal -0.2196178910336873 0.9755859685019643 0.0
  outer loop
    vertex 4.190157102365946 60.6228523835207 1.4099832412739487e-15
    vertex 3.6807990157584545 60.5081888352806 2.0000000000000013
    vertex 4.190157102365946 60.6228523835207 2.0000000000000013
  endloop
endfacet
facet normal -0.46463482164767944 0.8855023898965092 0.0
  outer loop
    vertex 4.190157102365946 60.6228523835207 2.0000000000000013
    vertex 4.652482122985737 60.86544043969076 1.4099832412739487e-15
    vertex 4.190157102365946 60.6228523835207 1.4099832412739487e-15
  endloop
endfacet
facet normal -0.46463482164767944 0.8855023898965092 0.0
  outer loop
    vertex 4.652482122985737 60.86544043969076 1.4099832412739487e-15
    vertex 4.190157102365946 60.6228523835207 2.0000000000000013
    vertex 4.652482122985737 60.86544043969076 2.0000000000000013
  endloop
endfacet
endsolid flip-bot-ver2
