solid flip-bot-ver2
facet normal 1.0 0.0 0.0
  outer loop
    vertex -9.999999999999988 56.999999999999986 2.7568458848170046e-23
    vertex -9.999999999999988 -1.9999999999999907 38.0
    vertex -9.999999999999988 -1.9999999999999907 2.7568458848170046e-23
  endloop
endfacet
facet normal 1.0 0.0 0.0
  outer loop
    vertex -9.999999999999988 -1.9999999999999907 38.0
    vertex -9.999999999999988 56.999999999999986 2.7568458848170046e-23
    vertex -9.999999999999988 56.999999999999986 38.0
  endloop
endfacet
facet normal 0.0 1.0 0.0
  outer loop
    vertex -10.999999999999995 56.999999999999986 38.0
    vertex -9.999999999999988 56.999999999999986 2.7568458848170046e-23
    vertex -10.999999999999995 56.999999999999986 2.7568458848170046e-23
  endloop
endfacet
facet normal 0.0 1.0 0.0
  outer loop
    vertex -9.999999999999988 56.999999999999986 2.7568458848170046e-23
    vertex -10.999999999999995 56.999999999999986 38.0
    vertex -9.999999999999988 56.999999999999986 38.0
  endloop
endfacet
facet normal 0.0 0.0 1.0
  outer loop
    vertex -9.999999999999988 -1.9999999999999907 38.0
    vertex -12.000000000000002 57.999999999999986 38.0
    vertex -12.000000000000002 -1.9999999999999907 38.0
  endloop
endfacet
facet normal 0.0 0.0 1.0
  outer loop
    vertex -12.000000000000002 57.999999999999986 38.0
    vertex -9.999999999999988 -1.9999999999999907 38.0
    vertex -10.999999999999995 56.999999999999986 38.0
  endloop
endfacet
facet normal 0.0 0.0 1.0
  outer loop
    vertex -10.999999999999995 56.999999999999986 38.0
    vertex -9.999999999999988 -1.9999999999999907 38.0
    vertex -9.999999999999988 56.999999999999986 38.0
  endloop
endfacet
facet normal 0.0 0.0 1.0
  outer loop
    vertex -10.999999999999995 57.999999999999986 38.0
    vertex -12.000000000000002 57.999999999999986 38.0
    vertex -10.999999999999995 56.999999999999986 38.0
  endloop
endfacet
facet normal 0.0 -1.0 0.0
  outer loop
    vertex -9.999999999999988 -1.9999999999999907 38.0
    vertex -12.000000000000002 -1.9999999999999907 2.7568458848170046e-23
    vertex -9.999999999999988 -1.9999999999999907 2.7568458848170046e-23
  endloop
endfacet
facet normal 0.0 -1.0 0.0
  outer loop
    vertex -12.000000000000002 -1.9999999999999907 2.7568458848170046e-23
    vertex -9.999999999999988 -1.9999999999999907 38.0
    vertex -12.000000000000002 -1.9999999999999907 38.0
  endloop
endfacet
facet normal -0.0 -0.0 -1.0
  outer loop
    vertex -10.999999999999995 57.999999999999986 2.7568458848170046e-23
    vertex -12.000000000000002 -1.9999999999999907 2.7568458848170046e-23
    vertex -12.000000000000002 57.999999999999986 2.7568458848170046e-23
  endloop
endfacet
facet normal -0.0 -0.0 -1.0
  outer loop
    vertex -12.000000000000002 -1.9999999999999907 2.7568458848170046e-23
    vertex -10.999999999999995 57.999999999999986 2.7568458848170046e-23
    vertex -10.999999999999995 56.999999999999986 2.7568458848170046e-23
  endloop
endfacet
facet normal -0.0 -0.0 -1.0
  outer loop
    vertex -12.000000000000002 -1.9999999999999907 2.7568458848170046e-23
    vertex -10.999999999999995 56.999999999999986 2.7568458848170046e-23
    vertex -9.999999999999988 -1.9999999999999907 2.7568458848170046e-23
  endloop
endfacet
facet normal -0.0 -0.0 -1.0
  outer loop
    vertex -9.999999999999988 -1.9999999999999907 2.7568458848170046e-23
    vertex -10.999999999999995 56.999999999999986 2.7568458848170046e-23
    vertex -9.999999999999988 56.999999999999986 2.7568458848170046e-23
  endloop
endfacet
facet normal -1.0 0.0 0.0
  outer loop
    vertex -12.000000000000002 57.999999999999986 38.0
    vertex -12.000000000000002 -1.9999999999999907 2.7568458848170046e-23
    vertex -12.000000000000002 -1.9999999999999907 38.0
  endloop
endfacet
facet normal -1.0 0.0 0.0
  outer loop
    vertex -12.000000000000002 -1.9999999999999907 2.7568458848170046e-23
    vertex -12.000000000000002 57.999999999999986 38.0
    vertex -12.000000000000002 57.999999999999986 2.7568458848170046e-23
  endloop
endfacet
facet normal 0.0 1.0 0.0
  outer loop
    vertex -12.000000000000002 57.999999999999986 38.0
    vertex -10.999999999999995 57.999999999999986 2.7568458848170046e-23
    vertex -12.000000000000002 57.999999999999986 2.7568458848170046e-23
  endloop
endfacet
facet normal 0.0 1.0 0.0
  outer loop
    vertex -10.999999999999995 57.999999999999986 2.7568458848170046e-23
    vertex -12.000000000000002 57.999999999999986 38.0
    vertex -10.999999999999995 57.999999999999986 38.0
  endloop
endfacet
facet normal 1.0 0.0 0.0
  outer loop
    vertex -10.999999999999995 57.999999999999986 2.7568458848170046e-23
    vertex -10.999999999999995 56.999999999999986 38.0
    vertex -10.999999999999995 56.999999999999986 2.7568458848170046e-23
  endloop
endfacet
facet normal 1.0 0.0 0.0
  outer loop
    vertex -10.999999999999995 56.999999999999986 38.0
    vertex -10.999999999999995 57.999999999999986 2.7568458848170046e-23
    vertex -10.999999999999995 57.999999999999986 38.0
  endloop
endfacet
endsolid flip-bot-ver2
